{
    "asset" : {
        "generator" : "Khronos glTF Blender I/O v1.2.75",
        "version" : "2.0"
    },
    "scene" : 0,
    "scenes" : [
        {
            "name" : "Scene",
            "nodes" : [
                0
            ]
        }
    ],
    "nodes" : [
        {
            "mesh" : 0,
            "name" : "ryu10",
            "rotation" : [
                0,
                1,
                0,
                -4.371138828673793e-08
            ]
        }
    ],
    "materials" : [
        {
            "doubleSided" : true,
            "emissiveFactor" : [
                0,
                0,
                0
            ],
            "name" : "material_0.001",
            "pbrMetallicRoughness" : {
                "baseColorTexture" : {
                    "index" : 0,
                    "texCoord" : 0
                },
                "metallicFactor" : 0,
                "roughnessFactor" : 0
            }
        }
    ],
    "meshes" : [
        {
            "name" : "ryu10",
            "primitives" : [
                {
                    "attributes" : {
                        "POSITION" : 0,
                        "NORMAL" : 1,
                        "TEXCOORD_0" : 2
                    },
                    "indices" : 3,
                    "material" : 0
                }
            ]
        }
    ],
    "textures" : [
        {
            "source" : 0
        }
    ],
    "images" : [
        {
            "mimeType" : "image/jpeg",
            "name" : "ryu10_1",
            "uri" : "ryu10_1.jpg"
        }
    ],
    "accessors" : [
        {
            "bufferView" : 0,
            "componentType" : 5126,
            "count" : 299997,
            "max" : [
                615.744140625,
                177.85693359375,
                190.64541625976562
            ],
            "min" : [
                -548.602783203125,
                -173.24737548828125,
                -254.79150390625
            ],
            "type" : "VEC3"
        },
        {
            "bufferView" : 1,
            "componentType" : 5126,
            "count" : 299997,
            "type" : "VEC3"
        },
        {
            "bufferView" : 2,
            "componentType" : 5126,
            "count" : 299997,
            "type" : "VEC2"
        },
        {
            "bufferView" : 3,
            "componentType" : 5125,
            "count" : 299997,
            "type" : "SCALAR"
        }
    ],
    "bufferViews" : [
        {
            "buffer" : 0,
            "byteLength" : 3599964,
            "byteOffset" : 0
        },
        {
            "buffer" : 0,
            "byteLength" : 3599964,
            "byteOffset" : 3599964
        },
        {
            "buffer" : 0,
            "byteLength" : 2399976,
            "byteOffset" : 7199928
        },
        {
            "buffer" : 0,
            "byteLength" : 1199988,
            "byteOffset" : 9599904
        }
    ],
    "buffers" : [
        {
            "byteLength" : 10799892,
            "uri" : "ryu10.glb.bin"
        }
    ]
}
